<svg width="300" height="300" viewBox="0 0 300 300" fill="none" xmlns="http://www.w3.org/2000/svg">
<rect width="300" height="300" fill="#005272"/>
<path d="M227.927 203.542C215.727 203.542 204.256 199.591 194.756 192.117C192.58 190.404 192.205 187.253 193.919 185.08C195.634 182.906 198.787 182.531 200.964 184.244C208.677 190.313 218 193.52 227.927 193.52C252.066 193.52 271.703 173.904 271.703 149.793C271.703 125.682 252.066 106.065 227.927 106.065C218.098 106.065 208.813 109.242 201.075 115.253C198.889 116.954 195.738 116.559 194.037 114.374C192.335 112.191 192.73 109.043 194.917 107.344C204.431 99.9508 215.846 96.0433 227.927 96.0433C257.597 96.0433 281.736 120.156 281.736 149.793C281.736 179.429 257.597 203.542 227.927 203.542Z" fill="white"/>
<path d="M146.411 130.894C146.411 128.07 148.573 125.826 151.402 125.826C154.23 125.826 156.475 128.07 156.475 130.894V169.279C156.475 172.104 154.23 174.265 151.402 174.265C148.656 174.265 146.411 172.104 146.411 169.279V130.894Z" fill="white"/>
<path d="M18.2637 130.952C18.2637 128.128 20.4259 125.884 23.2552 125.884C26.0825 125.884 28.3279 128.128 28.3279 130.952V169.337C28.3279 172.162 26.0825 174.323 23.2552 174.323C20.5091 174.323 18.2637 172.162 18.2637 169.337V130.952Z" fill="white"/>
<path d="M227.848 125.826C221.186 125.826 215.327 127.9 211.032 131.748C206.397 135.887 203.588 142.081 203.568 149.978V149.979C203.568 157.418 197.177 164.312 189.321 164.312C186.311 164.312 183.522 163.38 181.214 161.776C177.502 159.21 175.074 154.921 175.074 150.08C175.074 142.233 181.465 135.849 189.321 135.849C191.659 135.849 193.876 136.391 195.923 137.463C198.381 138.756 201.411 137.814 202.695 135.358C203.437 133.955 203.437 132.362 202.856 131.019H202.845C202.414 130.017 201.631 129.145 200.588 128.594C197.137 126.78 193.244 125.828 189.321 125.828C175.937 125.828 165.041 136.711 165.041 150.08C165.041 157.817 168.693 164.732 174.372 169.172C178.495 172.409 183.682 174.333 189.321 174.333C197.167 174.333 204.138 170.586 208.584 164.813C211.715 160.747 213.576 156.028 213.597 150.078H213.601V149.978C213.621 147.042 214.634 144.055 216.45 141.59C218.908 138.243 222.871 135.847 227.848 135.847C235.704 135.847 242.095 142.231 242.095 150.078C242.095 157.926 235.704 164.31 227.848 164.31C223.193 164.31 219.039 162.065 216.44 158.597C215.357 162.035 213.641 165.181 211.434 167.917C215.748 171.906 221.517 174.331 227.848 174.331C241.232 174.331 252.128 163.448 252.128 150.078C252.128 136.709 241.232 125.826 227.848 125.826Z" fill="white"/>
<path d="M112.562 164.335C104.706 164.335 98.3152 157.951 98.3152 150.104C98.3152 142.256 104.706 135.873 112.562 135.873C120.208 135.873 126.45 141.925 126.778 149.484V149.683C126.778 149.754 126.796 149.819 126.798 149.889C126.799 149.961 126.809 150.031 126.809 150.104C126.809 157.951 120.418 164.335 112.562 164.335ZM136.842 115.741C136.842 112.916 134.597 110.673 131.769 110.673C128.94 110.673 126.778 112.916 126.778 115.741V130.46C122.779 127.564 117.869 125.851 112.562 125.851C99.174 125.851 88.2821 136.73 88.2821 150.104C88.2821 163.477 99.174 174.357 112.562 174.357C125.95 174.357 136.842 163.477 136.842 150.104C136.842 149.99 136.835 149.88 136.834 149.768C136.834 149.739 136.842 149.712 136.842 149.683V115.741Z" fill="white"/>
<path d="M79.6564 145.184C78.8939 134.581 70.2052 126.183 59.4799 125.842C59.4699 125.832 59.4498 125.832 59.4297 125.842C59.2291 125.822 59.0184 125.822 58.7976 125.822C58.597 125.822 58.3963 125.822 58.2057 125.842C47.4302 126.133 38.6813 134.571 37.9489 145.234C37.9188 145.465 37.8887 145.722 37.8988 145.962V169.287C37.8988 172.113 40.1462 174.268 42.8952 174.268C45.7246 174.268 47.9619 172.113 47.9619 169.287V145.936C47.9619 145.896 47.9619 145.866 47.9519 145.826C48.4034 140.244 53.0989 135.844 58.7976 135.844C64.5265 135.844 69.2421 140.274 69.6534 145.896C69.6534 145.906 69.6635 145.916 69.6534 145.936V169.287C69.6534 172.113 71.8908 174.268 74.6399 174.268C77.4692 174.268 79.7166 172.113 79.7166 169.287V145.936C79.7166 145.675 79.6965 145.425 79.6564 145.184Z" fill="white"/>
</svg>
